<svg width="336" height="338" viewBox="0 0 336 338" fill="none" xmlns="http://www.w3.org/2000/svg">
<path d="M135.989 11.7663C136.471 12.742 137.343 13.1097 138.605 12.8708C139.417 12.7177 139.98 12.3272 140.291 11.7005L142.191 12.3615C141.602 13.6877 140.519 14.4989 138.938 14.7979C137.577 15.0554 136.407 14.8522 135.426 14.1856C134.446 13.5203 133.837 12.5632 133.6 11.3143C133.364 10.0768 133.573 8.96801 134.227 7.98802C134.882 7.00803 135.845 6.39714 137.118 6.15536C138.326 5.92646 139.401 6.15536 140.344 6.83778C141.287 7.52163 141.876 8.4773 142.111 9.70336C142.164 9.97661 142.191 10.2728 142.195 10.5889L135.989 11.7635V11.7663ZM135.642 10.1297L139.84 9.33569C139.612 8.80062 139.284 8.43152 138.852 8.2298C138.422 8.02808 137.965 7.97228 137.481 8.06384C136.911 8.17114 136.467 8.4072 136.149 8.76772C135.832 9.12824 135.662 9.58319 135.642 10.1311V10.1297Z" fill="#6F3F81"/>
<path d="M152.191 3.999C153.146 3.89027 153.945 4.11346 154.588 4.66855C155.231 5.22364 155.613 6.02193 155.733 7.06201L156.322 12.178L154.173 12.4226L153.602 7.45687C153.545 6.95901 153.377 6.58561 153.101 6.33525C152.826 6.08631 152.465 5.98617 152.021 6.03767C151.532 6.09347 151.171 6.29662 150.936 6.64856C150.702 7.0005 150.619 7.48119 150.689 8.09065L151.226 12.7574L149.078 13.002L148.507 8.03628C148.449 7.53842 148.282 7.16502 148.006 6.91466C147.73 6.66572 147.37 6.56701 146.926 6.61708C146.448 6.67145 146.087 6.8746 145.841 7.22797C145.595 7.58134 145.507 8.06203 145.577 8.67149L146.114 13.3382L143.966 13.5829L143.01 5.278L145.158 5.03336L145.259 5.91321C145.674 5.11491 146.401 4.65567 147.446 4.53693C148.467 4.42104 149.268 4.73435 149.849 5.47543C150.312 4.61561 151.093 4.12204 152.191 3.99757V3.999Z" fill="#6F3F81"/>
<path d="M164.84 10.8377C164.014 11.7232 162.982 12.1896 161.743 12.2368C160.503 12.2841 159.44 11.8992 158.551 11.0795C157.664 10.2597 157.195 9.23249 157.145 7.99641C157.095 6.76034 157.481 5.70023 158.301 4.81466C159.121 3.92909 160.15 3.46413 161.39 3.41549C162.629 3.36828 163.695 3.75312 164.588 4.57145C165.481 5.38978 165.953 6.41841 166.003 7.65449C166.053 8.89057 165.664 9.95067 164.838 10.8362L164.84 10.8377ZM160.016 9.54294C160.463 9.96069 161.011 10.1567 161.658 10.1324C162.306 10.1066 162.839 9.86913 163.256 9.41847C163.673 8.96782 163.869 8.40701 163.844 7.7389C163.816 7.07079 163.578 6.52857 163.125 6.11082C162.672 5.69308 162.121 5.49708 161.474 5.5214C160.826 5.54572 160.296 5.78464 159.885 6.23529C159.472 6.68594 159.28 7.24532 159.306 7.91344C159.333 8.58155 159.569 9.12519 160.016 9.54151V9.54294Z" fill="#6F3F81"/>
<path d="M171.944 5.63355L170.05 5.61495L170.02 9.09142C170.017 9.38184 170.088 9.59357 170.233 9.72949C170.377 9.86397 170.589 9.94122 170.867 9.96125C171.146 9.98128 171.493 9.98128 171.906 9.96268L171.889 11.9184C170.401 12.0714 169.355 11.9212 168.751 11.4691C168.145 11.0171 167.847 10.2173 167.857 9.06996L167.888 5.59349L166.43 5.57919L166.447 3.50618L167.905 3.52049L167.919 1.83233L170.086 1.20142L170.066 3.54195L171.959 3.56055L171.942 5.63355H171.944Z" fill="#6F3F81"/>
<path d="M172.996 11.9685L173.319 3.61638L175.48 3.70222L175.157 12.0543L172.996 11.9685ZM174.43 2.65642C174.072 2.64211 173.768 2.49905 173.515 2.22722C173.262 1.9554 173.143 1.64066 173.158 1.28443C173.172 0.928198 173.315 0.622041 173.588 0.364525C173.861 0.107009 174.175 -0.0131654 174.533 0.00114104C174.901 0.0154475 175.212 0.161373 175.463 0.440349C175.715 0.717894 175.835 1.0355 175.82 1.39173C175.806 1.74796 175.663 2.05125 175.392 2.30305C175.119 2.55484 174.798 2.67215 174.43 2.65785V2.65642Z" fill="#6F3F81"/>
<path d="M183.916 11.6316C182.99 12.4113 181.908 12.7504 180.672 12.6488C179.436 12.5472 178.427 12.0365 177.643 11.1166C176.86 10.1967 176.519 9.12085 176.619 7.88764C176.719 6.65442 177.229 5.64868 178.149 4.86898C179.07 4.08928 180.149 3.75021 181.385 3.85179C182.621 3.95337 183.633 4.46411 184.422 5.38401C185.211 6.30391 185.555 7.38119 185.455 8.61297C185.355 9.84619 184.842 10.8519 183.916 11.6316ZM179.283 9.7675C179.676 10.2353 180.196 10.4971 180.842 10.5501C181.488 10.603 182.045 10.4313 182.516 10.0336C182.984 9.63588 183.246 9.10368 183.3 8.43843C183.354 7.77175 183.182 7.20379 182.783 6.73597C182.384 6.26672 181.861 6.00634 181.215 5.95341C180.569 5.90047 180.014 6.07358 179.55 6.4713C179.085 6.86902 178.827 7.40122 178.774 8.0679C178.72 8.73458 178.89 9.30111 179.284 9.77036L179.283 9.7675Z" fill="#6F3F81"/>
<path d="M192.033 5.06727C192.939 5.19603 193.646 5.60662 194.152 6.29762C194.658 6.98862 194.836 7.8699 194.685 8.94002L193.968 14.0217L191.827 13.7169L192.507 8.89997C192.584 8.34917 192.496 7.90567 192.239 7.5709C191.981 7.23613 191.603 7.03297 191.105 6.96287C190.552 6.88419 190.085 6.99292 189.706 7.28763C189.326 7.58234 189.087 8.07162 188.991 8.75547L188.36 13.2234L186.219 12.9186L187.388 4.6438L189.529 4.94853L189.397 5.87558C190.026 5.17743 190.905 4.90847 192.034 5.0687L192.033 5.06727Z" fill="#6F3F81"/>
<path d="M198.478 8.79854C198.435 9.01743 198.545 9.22344 198.809 9.41658C199.072 9.60971 199.404 9.79999 199.8 9.98597C200.196 10.172 200.587 10.3851 200.973 10.6255C201.359 10.8658 201.66 11.2006 201.879 11.6298C202.096 12.059 202.152 12.5525 202.042 13.1091C201.878 13.9517 201.436 14.5369 200.717 14.8673C199.998 15.1978 199.166 15.2693 198.223 15.0848C196.534 14.7529 195.511 13.8773 195.15 12.4553L197.194 11.7829C197.296 12.5411 197.764 13.0018 198.598 13.1649C199.354 13.3137 199.778 13.152 199.87 12.6827C199.913 12.4638 199.801 12.2578 199.538 12.0647C199.274 11.8716 198.945 11.6784 198.549 11.4867C198.153 11.2964 197.763 11.0776 197.379 10.8315C196.994 10.5854 196.691 10.2564 196.47 9.84434C196.248 9.43231 196.189 8.95734 196.295 8.42228C196.452 7.61253 196.875 7.03455 197.564 6.68691C198.253 6.33926 199.041 6.25342 199.93 6.42653C200.599 6.55815 201.177 6.82711 201.668 7.23628C202.156 7.64544 202.507 8.15904 202.715 8.77851L200.714 9.40799C200.56 8.79854 200.176 8.43372 199.562 8.31355C199.288 8.25919 199.049 8.27492 198.845 8.35933C198.641 8.44374 198.518 8.59109 198.478 8.79854Z" fill="#6F3F81"/>
<path d="M217.597 10.8821C218.519 11.151 219.169 11.6675 219.548 12.4272C219.925 13.1883 219.968 14.071 219.675 15.0767L218.234 20.0182L216.159 19.4116L217.558 14.6146C217.698 14.1339 217.69 13.7248 217.532 13.3886C217.374 13.0524 217.081 12.8206 216.652 12.6961C216.18 12.5588 215.767 12.606 215.414 12.8392C215.061 13.0724 214.798 13.483 214.627 14.071L213.312 18.5789L211.237 17.9723L212.636 13.1754C212.776 12.6947 212.767 12.2855 212.61 11.9493C212.452 11.6131 212.159 11.3814 211.73 11.2569C211.268 11.1224 210.855 11.1696 210.492 11.4C210.128 11.6303 209.86 12.0395 209.689 12.6275L208.374 17.1354L206.299 16.5288L208.638 8.5072L210.714 9.11379L210.465 9.9636C211.157 9.38848 212.007 9.24828 213.015 9.54299C214.001 9.83198 214.618 10.43 214.866 11.3384C215.626 10.7247 216.538 10.5731 217.6 10.8835L217.597 10.8821Z" fill="#6F3F81"/>
<path d="M228.463 14.9637L230.487 15.7248L227.549 23.5461L225.525 22.785L225.872 21.8622C224.979 22.3958 223.984 22.4559 222.885 22.0425C221.839 21.6491 221.091 20.9123 220.644 19.8336C220.195 18.7549 220.19 17.6361 220.624 16.4787C221.059 15.3213 221.8 14.4844 222.848 13.9679C223.896 13.4515 224.942 13.3899 225.988 13.7834C227.086 14.1968 227.796 14.8978 228.116 15.8878L228.463 14.9651V14.9637ZM222.662 19.0582C222.915 19.6233 223.355 20.0238 223.983 20.2599C224.61 20.496 225.208 20.4859 225.776 20.2299C226.344 19.9738 226.75 19.5217 226.993 18.875C227.236 18.2284 227.228 17.6218 226.97 17.0538C226.711 16.4859 226.268 16.0853 225.641 15.8492C225.013 15.6132 224.417 15.6246 223.855 15.8821C223.292 16.1411 222.889 16.5932 222.646 17.2398C222.403 17.8865 222.408 18.4931 222.662 19.0582Z" fill="#6F3F81"/>
<path d="M235.863 20.3272L234.126 19.5704L232.74 22.7579C232.624 23.024 232.607 23.2471 232.686 23.4274C232.766 23.6077 232.93 23.7622 233.18 23.8881C233.43 24.0154 233.749 24.1513 234.136 24.2958L233.356 26.0884C231.927 25.6478 231.022 25.1027 230.64 24.4503C230.259 23.7979 230.299 22.9467 230.756 21.8937L232.142 18.7063L230.805 18.124L231.631 16.2241L232.969 16.8064L233.642 15.2584L235.884 15.5245L234.951 17.6705L236.687 18.4273L235.86 20.3272H235.863Z" fill="#6F3F81"/>
<path d="M241.108 22.8225L239.398 22.0056L237.899 25.1415C237.775 25.4033 237.749 25.6251 237.822 25.8082C237.895 25.9913 238.055 26.1501 238.299 26.286C238.544 26.422 238.858 26.5679 239.241 26.7267L238.398 28.4907C236.984 28 236.1 27.422 235.742 26.7582C235.385 26.0929 235.454 25.2431 235.948 24.2073L237.447 21.0713L236.131 20.4419L237.024 18.572L238.341 19.2015L239.068 17.6779L241.301 18.0226L240.292 20.1343L242.001 20.9512L241.108 22.821V22.8225Z" fill="#6F3F81"/>
<path d="M242.343 26.8118C242.104 27.8719 242.552 28.706 243.685 29.3126C244.414 29.7031 245.097 29.7532 245.734 29.4628L246.798 31.1695C245.506 31.8291 244.151 31.779 242.732 31.0193C241.51 30.3641 240.728 29.4714 240.383 28.3383C240.039 27.2052 240.168 26.0793 240.768 24.9605C241.362 23.8504 242.223 23.1207 243.349 22.7702C244.475 22.4197 245.61 22.5499 246.752 23.1622C247.835 23.7431 248.53 24.5957 248.834 25.7188C249.139 26.8433 248.996 27.9549 248.407 29.0536C248.276 29.2997 248.111 29.5458 247.915 29.7947L242.344 26.8089L242.343 26.8118ZM243.102 25.3239L246.869 27.344C247.029 26.7846 247.005 26.2925 246.798 25.8647C246.589 25.4369 246.269 25.1065 245.835 24.8747C245.323 24.6 244.828 24.5027 244.354 24.5843C243.879 24.6658 243.462 24.9119 243.1 25.3254L243.102 25.3239Z" fill="#6F3F81"/>
<path d="M252.763 28.4993C253.21 28.143 253.702 27.9699 254.237 27.9785C254.773 27.9871 255.284 28.1373 255.773 28.4306L254.537 30.495C254.011 30.0902 253.436 29.9013 252.813 29.9314C252.19 29.9614 251.673 30.3191 251.261 31.0086L249.21 34.4365L247.354 33.3263L251.644 26.1559L253.501 27.2661L252.763 28.4993Z" fill="#6F3F81"/>
<path d="M270.974 45.8302C270.515 46.8145 270.774 47.7243 271.752 48.5584C272.381 49.0949 273.038 49.2895 273.723 49.1421L274.397 51.0363C272.994 51.4054 271.68 51.0678 270.455 50.0234C269.401 49.1235 268.828 48.0834 268.733 46.9046C268.639 45.7257 269.005 44.6527 269.829 43.6871C270.647 42.73 271.645 42.2006 272.819 42.0976C273.994 41.9946 275.076 42.3651 276.062 43.2064C276.997 44.0047 277.493 44.9847 277.552 46.1478C277.609 47.3109 277.233 48.3653 276.421 49.3138C276.239 49.5255 276.027 49.7315 275.782 49.9333L270.976 45.8302H270.974ZM272.035 44.5383L275.286 47.3137C275.562 46.8016 275.644 46.3152 275.531 45.8531C275.418 45.391 275.175 45.0004 274.802 44.6814C274.36 44.3037 273.898 44.1048 273.417 44.0819C272.937 44.0605 272.475 44.2121 272.035 44.5383Z" fill="#6F3F81"/>
<path d="M287.193 53.6083C287.876 54.285 288.202 55.0476 288.17 55.8945C288.14 56.7429 287.756 57.5383 287.018 58.2808L283.392 61.9347L281.856 60.4125L285.376 56.8659C285.729 56.5097 285.916 56.1463 285.938 55.7757C285.959 55.4052 285.812 55.0619 285.493 54.7471C285.145 54.4009 284.759 54.2464 284.336 54.2836C283.913 54.3208 283.487 54.5568 283.055 54.9903L279.747 58.3237L278.21 56.8015L281.73 53.255C282.083 52.8987 282.271 52.5353 282.292 52.1648C282.313 51.7943 282.165 51.4509 281.847 51.1362C281.506 50.7985 281.12 50.644 280.69 50.6726C280.26 50.7013 279.828 50.933 279.398 51.3679L276.089 54.7013L274.553 53.1791L280.44 47.2477L281.976 48.7699L281.352 49.3979C282.235 49.222 283.049 49.5038 283.796 50.2435C284.526 50.9674 284.783 51.7871 284.567 52.7027C285.529 52.5268 286.404 52.8272 287.19 53.6069L287.193 53.6083Z" fill="#6F3F81"/>
<path d="M289.78 67.7454C288.571 67.6539 287.56 67.1403 286.747 66.2032C285.934 65.2676 285.569 64.196 285.652 62.9928C285.735 61.7897 286.245 60.7825 287.18 59.9728C288.115 59.163 289.185 58.8011 290.389 58.8883C291.593 58.9756 292.602 59.4878 293.416 60.4234C294.229 61.3605 294.595 62.432 294.516 63.6395C294.438 64.847 293.929 65.857 292.994 66.6667C292.059 67.4765 290.987 67.8356 289.78 67.744V67.7454ZM287.77 63.1774C287.723 63.7869 287.913 64.3362 288.338 64.8255C288.762 65.3148 289.282 65.5823 289.897 65.6267C290.511 65.671 291.07 65.4736 291.576 65.0358C292.082 64.598 292.355 64.0716 292.398 63.4578C292.441 62.8441 292.249 62.2933 291.825 61.804C291.4 61.3147 290.882 61.05 290.271 61.01C289.661 60.9699 289.102 61.1688 288.598 61.6066C288.092 62.0443 287.817 62.5679 287.77 63.1774Z" fill="#6F3F81"/>
<path d="M298.291 70.0374L297.12 68.5481L294.385 70.6941C294.156 70.8729 294.035 71.0603 294.02 71.2578C294.005 71.4538 294.077 71.6684 294.236 71.8973C294.396 72.1276 294.612 72.398 294.885 72.7084L293.347 73.9159C292.297 72.8515 291.759 71.9416 291.733 71.1877C291.708 70.4337 292.147 69.7027 293.05 68.9945L295.785 66.8485L294.884 65.7026L296.514 64.4236L297.416 65.5695L298.744 64.5266L300.593 65.8228L298.752 67.2677L299.923 68.757L298.292 70.036L298.291 70.0374Z" fill="#6F3F81"/>
<path d="M294 74.8114L300.729 69.8528L302.014 71.5925L295.285 76.5511L294 74.8114ZM302.174 70.1203C301.961 69.8328 301.882 69.5052 301.938 69.1389C301.992 68.7727 302.164 68.4837 302.451 68.2719C302.738 68.0602 303.067 67.9801 303.439 68.033C303.81 68.086 304.102 68.2548 304.315 68.5438C304.533 68.8399 304.613 69.1732 304.555 69.5438C304.495 69.9129 304.322 70.2047 304.035 70.4165C303.747 70.6282 303.42 70.7055 303.054 70.6497C302.687 70.5939 302.394 70.4179 302.175 70.1218L302.174 70.1203Z" fill="#6F3F81"/>
<path d="M301.096 83.1199C299.907 82.8839 298.967 82.2515 298.272 81.2243C297.578 80.1971 297.345 79.0898 297.573 77.9067C297.802 76.7221 298.429 75.7836 299.456 75.0926C300.482 74.4016 301.588 74.1712 302.773 74.4044C303.958 74.6362 304.898 75.2657 305.593 76.2943C306.287 77.3215 306.522 78.4303 306.296 79.6191C306.07 80.808 305.444 81.7479 304.419 82.4389C303.393 83.1299 302.285 83.3574 301.098 83.1214L301.096 83.1199ZM299.654 78.3416C299.534 78.941 299.656 79.509 300.019 80.0455C300.382 80.582 300.865 80.9096 301.469 81.0283C302.074 81.1471 302.653 81.0183 303.207 80.6449C303.762 80.2715 304.098 79.7822 304.213 79.1785C304.331 78.5748 304.206 78.0039 303.845 77.4674C303.482 76.931 303 76.6048 302.398 76.4917C301.797 76.3787 301.219 76.5075 300.665 76.8823C300.11 77.2557 299.773 77.7421 299.653 78.3416H299.654Z" fill="#6F3F81"/>
<path d="M311.3 85.3591C311.768 86.1474 311.889 86.9543 311.666 87.7798C311.443 88.6053 310.866 89.2934 309.935 89.8428L305.516 92.4523L304.414 90.5924L308.603 88.1188C309.084 87.8356 309.374 87.4894 309.474 87.0788C309.574 86.6696 309.497 86.2476 309.241 85.8155C308.956 85.3348 308.579 85.0387 308.112 84.9256C307.643 84.8126 307.111 84.9328 306.517 85.2833L302.629 87.578L301.527 85.7182L308.725 81.4678L309.827 83.3276L309.021 83.804C309.96 83.8584 310.72 84.3763 311.3 85.3577V85.3591Z" fill="#6F3F81"/>
<path d="M312.366 92.6385C312.17 92.7443 312.08 92.9604 312.098 93.2865C312.117 93.6127 312.18 93.9876 312.29 94.4125C312.399 94.8359 312.483 95.2723 312.543 95.7229C312.603 96.1736 312.537 96.6185 312.344 97.0592C312.151 97.4998 311.806 97.8546 311.305 98.125C310.549 98.5327 309.816 98.5642 309.103 98.2194C308.39 97.8746 307.805 97.2795 307.346 96.4354C306.527 94.9232 306.552 93.577 307.421 92.3967L309.241 93.5469C308.721 94.1077 308.663 94.7601 309.067 95.5069C309.434 96.185 309.829 96.4096 310.25 96.1822C310.446 96.0763 310.535 95.8603 310.518 95.5341C310.499 95.2079 310.438 94.8316 310.333 94.4053C310.229 93.979 310.149 93.5398 310.095 93.0877C310.039 92.6342 310.1 92.1921 310.279 91.7601C310.456 91.328 310.786 90.9818 311.267 90.7228C311.993 90.3308 312.709 90.2894 313.416 90.5998C314.124 90.9102 314.693 91.4625 315.123 92.2593C315.447 92.8588 315.607 93.4768 315.604 94.1135C315.6 94.7501 315.426 95.3452 315.08 95.9003L313.319 94.7558C313.692 94.2494 313.729 93.7215 313.431 93.1721C313.298 92.926 313.133 92.7515 312.937 92.6485C312.742 92.5455 312.55 92.5426 312.364 92.6442L312.366 92.6385Z" fill="#6F3F81"/>
<path d="M322.769 108.914C323.136 109.801 323.14 110.629 322.785 111.399C322.427 112.169 321.764 112.752 320.795 113.151L316.033 115.114L315.207 113.117L319.829 111.213C320.293 111.021 320.606 110.759 320.771 110.426C320.934 110.093 320.931 109.719 320.759 109.307C320.571 108.852 320.276 108.562 319.872 108.432C319.467 108.302 318.983 108.354 318.417 108.588L314.072 110.377L313.246 108.38L317.869 106.476C318.334 106.286 318.647 106.023 318.811 105.689C318.974 105.356 318.971 104.982 318.8 104.57C318.615 104.127 318.321 103.835 317.912 103.695C317.505 103.555 317.018 103.602 316.45 103.835L312.105 105.625L311.279 103.628L319.01 100.443L319.836 102.44L319.017 102.778C319.899 102.958 320.542 103.533 320.944 104.503C321.337 105.453 321.255 106.307 320.702 107.067C321.658 107.277 322.347 107.894 322.77 108.915L322.769 108.914Z" fill="#6F3F81"/>
<path d="M326.389 119.942L327.061 121.997L319.11 124.585L318.438 122.532L319.376 122.226C318.4 121.862 317.731 121.123 317.365 120.008C317.018 118.947 317.125 117.904 317.688 116.882C318.251 115.859 319.12 115.157 320.296 114.773C321.473 114.39 322.592 114.446 323.651 114.941C324.71 115.436 325.413 116.214 325.76 117.276C326.125 118.39 326.02 119.382 325.449 120.249L326.388 119.944L326.389 119.942ZM319.559 117.974C319.276 118.525 319.239 119.117 319.446 119.755C319.655 120.392 320.036 120.852 320.592 121.134C321.148 121.417 321.754 121.452 322.412 121.237C323.069 121.023 323.538 120.638 323.819 120.083C324.101 119.528 324.138 118.931 323.929 118.294C323.721 117.658 323.339 117.2 322.786 116.922C322.231 116.645 321.625 116.613 320.969 116.826C320.312 117.041 319.842 117.423 319.559 117.972V117.974Z" fill="#6F3F81"/>
<path d="M326.828 129.065L326.332 127.238L322.973 128.144C322.693 128.22 322.507 128.344 322.417 128.519C322.326 128.693 322.308 128.918 322.366 129.191C322.423 129.464 322.516 129.798 322.646 130.191L320.756 130.7C320.206 129.31 320.066 128.264 320.338 127.56C320.609 126.856 321.299 126.356 322.408 126.057L325.767 125.151L325.386 123.745L327.388 123.205L327.769 124.612L329.4 124.172L330.595 126.088L328.334 126.698L328.83 128.524L326.828 129.064V129.065Z" fill="#6F3F81"/>
<path d="M328.161 134.715L327.73 132.873L324.342 133.657C324.059 133.722 323.869 133.841 323.771 134.011C323.674 134.183 323.649 134.406 323.696 134.682C323.743 134.957 323.824 135.295 323.94 135.692L322.034 136.133C321.533 134.724 321.432 133.674 321.728 132.98C322.023 132.286 322.731 131.811 323.85 131.551L327.239 130.765L326.907 129.346L328.928 128.878L329.26 130.297L330.906 129.917L332.032 131.874L329.751 132.402L330.181 134.245L328.161 134.712V134.715Z" fill="#6F3F81"/>
<path d="M325.805 138.166C324.826 138.64 324.453 139.508 324.686 140.771C324.836 141.584 325.223 142.149 325.849 142.465L325.178 144.358C323.854 143.76 323.047 142.67 322.755 141.089C322.504 139.727 322.714 138.56 323.385 137.585C324.056 136.611 325.018 136.01 326.268 135.781C327.507 135.555 328.616 135.771 329.594 136.434C330.571 137.095 331.179 138.062 331.413 139.336C331.636 140.544 331.403 141.617 330.714 142.554C330.026 143.491 329.066 144.072 327.839 144.296C327.564 144.347 327.269 144.372 326.951 144.374L325.806 138.165L325.805 138.166ZM327.446 137.833L328.22 142.033C328.758 141.81 329.128 141.484 329.332 141.055C329.537 140.625 329.594 140.169 329.505 139.687C329.399 139.116 329.168 138.67 328.808 138.351C328.448 138.03 327.995 137.859 327.446 137.834V137.833Z" fill="#6F3F81"/>
<path d="M330.995 147.355C331.552 147.484 331.995 147.758 332.322 148.182C332.65 148.605 332.853 149.099 332.928 149.664L330.54 149.983C330.529 149.319 330.317 148.754 329.905 148.285C329.492 147.816 328.889 147.635 328.093 147.741L324.13 148.272L323.84 146.132L332.129 145.021L332.419 147.162L330.993 147.353L330.995 147.355Z" fill="#6F3F81"/>
<path d="M328.796 172.374C327.739 172.627 327.188 173.395 327.146 174.679C327.118 175.504 327.376 176.138 327.919 176.581L326.857 178.287C325.692 177.42 325.136 176.184 325.189 174.577C325.235 173.194 325.691 172.098 326.555 171.291C327.419 170.482 328.488 170.102 329.758 170.145C331.017 170.189 332.055 170.638 332.868 171.493C333.683 172.347 334.067 173.421 334.024 174.716C333.983 175.943 333.526 176.94 332.652 177.709C331.778 178.477 330.717 178.839 329.468 178.796C329.189 178.786 328.895 178.749 328.585 178.682L328.796 172.372V172.374ZM330.47 172.398L330.327 176.666C330.9 176.563 331.332 176.324 331.623 175.949C331.915 175.574 332.069 175.141 332.085 174.65C332.105 174.069 331.972 173.584 331.691 173.195C331.408 172.806 331 172.54 330.47 172.398Z" fill="#6F3F81"/>
<path d="M332.837 189.882C332.734 190.837 332.341 191.566 331.659 192.07C330.976 192.573 330.114 192.769 329.071 192.656L323.947 192.1L324.179 189.952L329.152 190.493C329.651 190.548 330.053 190.467 330.356 190.254C330.659 190.04 330.835 189.711 330.883 189.267C330.936 188.779 330.816 188.382 330.523 188.074C330.23 187.766 329.78 187.58 329.17 187.515L324.495 187.007L324.726 184.859L329.7 185.4C330.199 185.455 330.6 185.374 330.903 185.16C331.206 184.945 331.382 184.616 331.431 184.173C331.482 183.695 331.362 183.297 331.071 182.98C330.779 182.662 330.329 182.469 329.718 182.403L325.043 181.895L325.275 179.748L333.593 180.652L333.362 182.799L332.48 182.703C333.169 183.283 333.457 184.095 333.346 185.138C333.236 186.158 332.756 186.871 331.904 187.271C332.643 187.914 332.953 188.784 332.834 189.882H332.837Z" fill="#6F3F81"/>
<path d="M323.401 200.699C322.716 199.699 322.486 198.59 322.709 197.371C322.932 196.152 323.541 195.201 324.534 194.515C325.528 193.83 326.634 193.6 327.852 193.824C329.069 194.049 330.021 194.658 330.706 195.653C331.39 196.647 331.622 197.754 331.399 198.972C331.176 200.191 330.567 201.145 329.572 201.836C328.578 202.527 327.471 202.76 326.254 202.536C325.036 202.311 324.084 201.699 323.401 200.699ZM325.716 196.282C325.21 196.626 324.9 197.116 324.783 197.753C324.666 198.39 324.783 198.962 325.132 199.468C325.48 199.975 325.985 200.289 326.644 200.411C327.303 200.533 327.884 200.418 328.39 200.069C328.896 199.72 329.208 199.226 329.325 198.59C329.442 197.953 329.325 197.384 328.975 196.883C328.625 196.381 328.12 196.07 327.461 195.949C326.803 195.827 326.221 195.939 325.716 196.282Z" fill="#6F3F81"/>
<path d="M326.94 208.768L327.37 206.927L323.982 206.133C323.699 206.067 323.476 206.089 323.313 206.2C323.15 206.31 323.028 206.501 322.948 206.768C322.868 207.036 322.792 207.373 322.721 207.781L320.814 207.335C320.989 205.851 321.363 204.864 321.936 204.373C322.509 203.882 323.356 203.769 324.473 204.031L327.862 204.825L328.193 203.407L330.214 203.881L329.883 205.299L331.528 205.685L331.672 207.937L329.391 207.402L328.961 209.244L326.94 208.771V208.768Z" fill="#6F3F81"/>
<path d="M320.523 208.401L328.61 210.555L328.055 212.642L319.969 210.489L320.523 208.401ZM329.305 211.848C329.396 211.503 329.602 211.237 329.923 211.051C330.244 210.865 330.577 210.818 330.922 210.909C331.267 211.001 331.536 211.208 331.727 211.53C331.919 211.852 331.969 212.186 331.877 212.532C331.783 212.888 331.573 213.158 331.247 213.343C330.921 213.527 330.585 213.573 330.241 213.482C329.895 213.39 329.63 213.184 329.445 212.862C329.259 212.542 329.213 212.203 329.307 211.846L329.305 211.848Z" fill="#6F3F81"/>
<path d="M318.474 219.124C317.914 218.049 317.818 216.92 318.185 215.737C318.553 214.554 319.271 213.683 320.339 213.121C321.407 212.56 322.533 212.462 323.715 212.832C324.897 213.201 325.77 213.919 326.33 214.988C326.892 216.056 326.989 217.182 326.62 218.365C326.253 219.548 325.534 220.423 324.464 220.989C323.393 221.556 322.267 221.654 321.085 221.287C319.903 220.919 319.031 220.197 318.471 219.122L318.474 219.124ZM321.301 215.016C320.758 215.297 320.391 215.747 320.199 216.365C320.007 216.983 320.053 217.564 320.34 218.111C320.626 218.656 321.089 219.028 321.728 219.227C322.367 219.425 322.959 219.382 323.503 219.096C324.048 218.81 324.417 218.358 324.608 217.74C324.8 217.122 324.753 216.543 324.465 216.003C324.178 215.464 323.713 215.093 323.075 214.895C322.436 214.696 321.844 214.736 321.301 215.018V215.016Z" fill="#6F3F81"/>
<path d="M323.127 228.476C322.804 229.331 322.25 229.931 321.465 230.273C320.68 230.615 319.781 230.595 318.769 230.211L313.963 228.396L314.725 226.376L319.281 228.097C319.803 228.294 320.256 228.304 320.639 228.127C321.022 227.949 321.302 227.626 321.479 227.155C321.676 226.633 321.672 226.154 321.466 225.719C321.26 225.284 320.835 224.943 320.187 224.699L315.96 223.102L316.721 221.082L324.551 224.039L323.789 226.059L322.911 225.727C323.457 226.494 323.529 227.41 323.127 228.474V228.476Z" fill="#6F3F81"/>
<path d="M318.082 233.936C317.877 233.846 317.651 233.909 317.406 234.124C317.158 234.338 316.903 234.619 316.635 234.965C316.368 235.311 316.075 235.644 315.756 235.968C315.438 236.291 315.046 236.511 314.579 236.63C314.113 236.749 313.618 236.693 313.098 236.464C312.311 236.119 311.835 235.559 311.669 234.786C311.503 234.012 311.612 233.187 311.998 232.307C312.688 230.733 313.767 229.926 315.233 229.888L315.446 232.028C314.683 231.961 314.131 232.315 313.791 233.092C313.482 233.798 313.547 234.247 313.987 234.44C314.191 234.53 314.417 234.467 314.663 234.252C314.909 234.038 315.169 233.759 315.442 233.416C315.715 233.072 316.012 232.739 316.335 232.418C316.66 232.098 317.046 231.875 317.497 231.749C317.947 231.623 318.423 231.672 318.925 231.89C319.681 232.222 320.154 232.762 320.344 233.51C320.534 234.257 320.447 235.045 320.084 235.873C319.811 236.497 319.421 237.002 318.916 237.39C318.41 237.778 317.833 238.005 317.183 238.072L317.003 235.982C317.631 235.965 318.072 235.672 318.322 235.099C318.433 234.843 318.47 234.607 318.432 234.39C318.393 234.172 318.277 234.021 318.083 233.935L318.082 233.936Z" fill="#6F3F81"/>
<path d="M311.897 252.125C311.433 252.965 310.79 253.485 309.963 253.687C309.139 253.889 308.267 253.736 307.349 253.228L302.836 250.737L303.879 248.847L308.261 251.266C308.701 251.51 309.102 251.59 309.465 251.51C309.828 251.43 310.116 251.193 310.332 250.803C310.569 250.374 310.612 249.96 310.461 249.564C310.309 249.168 309.965 248.821 309.428 248.525L305.31 246.252L306.353 244.362L310.735 246.78C311.175 247.023 311.576 247.103 311.939 247.025C312.302 246.944 312.59 246.708 312.806 246.318C313.038 245.897 313.081 245.485 312.935 245.079C312.789 244.674 312.447 244.322 311.91 244.026L307.792 241.753L308.836 239.863L316.162 243.907L315.119 245.797L314.343 245.368C314.754 246.169 314.707 247.029 314.2 247.946C313.704 248.844 312.985 249.315 312.044 249.357C312.479 250.234 312.427 251.155 311.894 252.122L311.897 252.125Z" fill="#6F3F81"/>
<path d="M305.544 261.826L304.36 263.631L297.361 259.043L298.546 257.238L299.372 257.779C299.046 256.792 299.204 255.807 299.847 254.827C300.458 253.895 301.34 253.328 302.492 253.129C303.644 252.93 304.738 253.169 305.774 253.849C306.81 254.528 307.466 255.434 307.742 256.57C308.019 257.704 307.85 258.739 307.239 259.671C306.596 260.651 305.757 261.188 304.72 261.284L305.546 261.825L305.544 261.826ZM302.808 255.269C302.201 255.391 301.713 255.733 301.346 256.292C300.979 256.852 300.859 257.437 300.986 258.048C301.113 258.657 301.466 259.152 302.045 259.531C302.624 259.91 303.218 260.036 303.829 259.909C304.439 259.782 304.928 259.438 305.295 258.879C305.662 258.32 305.781 257.736 305.651 257.131C305.521 256.525 305.166 256.033 304.587 255.654C304.009 255.275 303.416 255.146 302.808 255.269Z" fill="#6F3F81"/>
<path d="M298.695 267.857L299.813 266.33L297.003 264.276C296.769 264.104 296.554 264.038 296.361 264.076C296.168 264.113 295.981 264.24 295.804 264.456C295.625 264.671 295.424 264.953 295.198 265.299L293.617 264.143C294.359 262.847 295.089 262.084 295.808 261.857C296.527 261.629 297.35 261.855 298.279 262.533L301.089 264.588L301.95 263.413L303.625 264.638L302.764 265.812L304.129 266.81L303.382 268.937L301.491 267.554L300.373 269.08L298.698 267.855L298.695 267.857Z" fill="#6F3F81"/>
<path d="M295.111 272.42L296.281 270.934L293.546 268.781C293.317 268.602 293.107 268.527 292.911 268.559C292.717 268.59 292.525 268.711 292.339 268.918C292.154 269.127 291.942 269.4 291.703 269.738L290.164 268.527C290.952 267.258 291.708 266.523 292.435 266.321C293.163 266.12 293.977 266.374 294.881 267.085L297.616 269.238L298.518 268.095L300.149 269.379L299.247 270.523L300.575 271.569L299.751 273.669L297.911 272.22L296.74 273.705L295.109 272.422L295.111 272.42Z" fill="#6F3F81"/>
<path d="M290.947 272.743C289.964 272.276 289.052 272.528 288.212 273.498C287.671 274.122 287.473 274.777 287.617 275.462L285.718 276.12C285.355 274.716 285.7 273.405 286.752 272.19C287.658 271.145 288.702 270.58 289.882 270.494C291.063 270.408 292.135 270.783 293.097 271.614C294.05 272.439 294.574 273.439 294.672 274.614C294.767 275.789 294.393 276.866 293.545 277.844C292.742 278.773 291.757 279.261 290.594 279.309C289.431 279.358 288.376 278.973 287.431 278.155C287.22 277.972 287.015 277.757 286.815 277.511L290.947 272.741V272.743ZM292.235 273.813L289.439 277.039C289.95 277.318 290.437 277.404 290.9 277.295C291.363 277.186 291.755 276.947 292.076 276.575C292.456 276.136 292.658 275.677 292.684 275.198C292.708 274.717 292.558 274.256 292.233 273.813H292.235Z" fill="#6F3F81"/>
<path d="M287.022 282.526C287.271 283.041 287.333 283.558 287.208 284.078C287.082 284.598 286.823 285.064 286.43 285.476L284.685 283.815C285.195 283.392 285.505 282.874 285.613 282.26C285.72 281.646 285.483 281.063 284.901 280.508L282.004 277.751L283.493 276.187L289.556 281.955L288.067 283.519L287.025 282.526H287.022Z" fill="#6F3F81"/>
<path d="M266.112 296.44C265.252 295.775 264.307 295.827 263.278 296.594C262.616 297.089 262.283 297.685 262.277 298.386L260.281 298.625C260.226 297.176 260.844 295.97 262.132 295.007C263.241 294.179 264.381 293.85 265.553 294.017C266.725 294.186 267.693 294.779 268.454 295.797C269.211 296.805 269.509 297.894 269.352 299.063C269.195 300.232 268.597 301.203 267.56 301.977C266.576 302.712 265.51 302.978 264.363 302.778C263.215 302.576 262.266 301.977 261.518 300.977C261.351 300.754 261.197 300.501 261.054 300.217L266.111 296.44H266.112ZM267.142 297.761L263.722 300.316C264.161 300.698 264.618 300.885 265.094 300.878C265.57 300.871 266.005 300.721 266.398 300.426C266.862 300.079 267.158 299.674 267.285 299.21C267.413 298.747 267.364 298.263 267.142 297.761Z" fill="#6F3F81"/>
<path d="M254.985 310.53C254.176 311.046 253.36 311.196 252.54 310.979C251.718 310.762 251.025 310.212 250.46 309.329L247.682 304.989L249.502 303.827L252.199 308.04C252.47 308.464 252.784 308.726 253.141 308.829C253.499 308.932 253.866 308.863 254.242 308.623C254.656 308.358 254.891 308.016 254.946 307.597C255.002 307.178 254.865 306.709 254.535 306.192L251.999 302.232L253.82 301.07L256.517 305.284C256.787 305.707 257.102 305.969 257.459 306.072C257.816 306.175 258.184 306.106 258.559 305.866C258.964 305.607 259.198 305.265 259.264 304.84C259.33 304.414 259.197 303.943 258.867 303.427L256.331 299.467L258.152 298.305L262.663 305.351L260.842 306.513L260.365 305.766C260.345 306.666 259.891 307.398 259.007 307.962C258.141 308.514 257.285 308.584 256.438 308.172C256.401 309.149 255.917 309.935 254.985 310.528V310.53Z" fill="#6F3F81"/>
<path d="M240.626 309.948C240.976 308.789 241.697 307.916 242.787 307.327C243.878 306.737 245.002 306.616 246.16 306.96C247.318 307.305 248.192 308.022 248.781 309.111C249.372 310.199 249.493 311.321 249.149 312.477C248.803 313.633 248.085 314.506 246.995 315.094C245.904 315.683 244.778 315.806 243.615 315.464C242.451 315.122 241.575 314.407 240.986 313.318C240.398 312.229 240.277 311.106 240.626 309.948ZM245.524 308.986C244.938 308.807 244.361 308.873 243.792 309.181C243.222 309.488 242.849 309.938 242.673 310.526C242.497 311.115 242.569 311.704 242.887 312.292C243.206 312.88 243.66 313.262 244.251 313.438C244.841 313.614 245.421 313.548 245.991 313.241C246.562 312.933 246.932 312.486 247.103 311.9C247.275 311.314 247.201 310.726 246.882 310.138C246.563 309.55 246.112 309.166 245.526 308.988L245.524 308.986Z" fill="#6F3F81"/>
<path d="M236.554 317.751L238.261 316.932L236.75 313.797C236.624 313.535 236.467 313.377 236.278 313.319C236.09 313.262 235.865 313.285 235.606 313.391C235.348 313.497 235.036 313.648 234.675 313.847L233.824 312.085C235.091 311.292 236.094 310.964 236.837 311.103C237.579 311.242 238.199 311.829 238.698 312.863L240.209 315.997L241.522 315.367L242.422 317.235L241.109 317.866L241.842 319.388L240.177 320.91L239.161 318.8L237.454 319.618L236.554 317.75V317.751Z" fill="#6F3F81"/>
<path d="M232.811 312.53L236.217 320.17L234.242 321.047L230.836 313.407L232.811 312.53ZM235.645 321.522C235.973 321.377 236.308 321.37 236.654 321.503C237 321.636 237.246 321.865 237.392 322.191C237.538 322.517 237.545 322.855 237.413 323.207C237.283 323.558 237.054 323.807 236.727 323.951C236.39 324.1 236.048 324.105 235.698 323.968C235.349 323.829 235.102 323.598 234.956 323.271C234.811 322.945 234.805 322.609 234.938 322.264C235.071 321.918 235.305 321.671 235.642 321.522H235.645Z" fill="#6F3F81"/>
<path d="M223.178 317.655C223.662 316.546 224.481 315.763 225.635 315.308C226.788 314.854 227.918 314.865 229.027 315.344C230.137 315.824 230.92 316.638 231.376 317.789C231.832 318.939 231.82 320.068 231.34 321.176C230.86 322.283 230.044 323.064 228.892 323.519C227.738 323.974 226.605 323.964 225.492 323.486C224.377 323.008 223.592 322.196 223.136 321.044C222.68 319.894 222.695 318.764 223.179 317.655H223.178ZM228.156 317.281C227.595 317.035 227.014 317.031 226.412 317.268C225.81 317.506 225.386 317.908 225.141 318.472C224.897 319.035 224.897 319.629 225.144 320.251C225.392 320.874 225.797 321.307 226.362 321.55C226.928 321.795 227.511 321.798 228.114 321.56C228.716 321.323 229.138 320.922 229.376 320.36C229.616 319.798 229.612 319.206 229.365 318.583C229.118 317.961 228.714 317.527 228.154 317.281H228.156Z" fill="#6F3F81"/>
<path d="M218.808 327.134C217.938 327.419 217.123 327.363 216.364 326.967C215.605 326.571 215.055 325.858 214.718 324.831L213.111 319.954L215.165 319.281L216.687 323.904C216.861 324.433 217.139 324.791 217.517 324.978C217.896 325.166 218.325 325.18 218.802 325.024C219.333 324.851 219.703 324.548 219.914 324.114C220.124 323.681 220.121 323.137 219.906 322.48L218.494 318.191L220.547 317.519L223.163 325.462L221.109 326.134L220.816 325.244C220.562 326.149 219.893 326.778 218.811 327.133L218.808 327.134Z" fill="#6F3F81"/>
<path d="M211.381 326.631C211.322 326.415 211.132 326.279 210.809 326.222C210.488 326.165 210.108 326.14 209.67 326.149C209.233 326.158 208.788 326.139 208.335 326.093C207.884 326.047 207.465 325.88 207.079 325.592C206.695 325.303 206.427 324.886 206.277 324.336C206.051 323.508 206.189 322.787 206.687 322.173C207.186 321.559 207.899 321.127 208.826 320.877C210.486 320.429 211.793 320.763 212.743 321.88L211.208 323.386C210.781 322.751 210.158 322.544 209.339 322.766C208.594 322.966 208.285 323.298 208.411 323.761C208.47 323.976 208.66 324.113 208.983 324.17C209.304 324.228 209.686 324.255 210.125 324.252C210.563 324.249 211.009 324.273 211.464 324.323C211.917 324.374 212.334 324.535 212.716 324.808C213.096 325.08 213.359 325.481 213.502 326.009C213.718 326.804 213.595 327.511 213.132 328.126C212.669 328.743 212 329.168 211.127 329.404C210.469 329.581 209.83 329.595 209.21 329.445C208.591 329.295 208.049 328.987 207.588 328.524L209.104 327.075C209.512 327.554 210.018 327.711 210.622 327.548C210.892 327.475 211.099 327.355 211.245 327.189C211.391 327.023 211.435 326.837 211.381 326.633V326.631Z" fill="#6F3F81"/>
<path d="M193.305 333.197C192.359 333.362 191.548 333.186 190.874 332.669C190.199 332.153 189.772 331.379 189.59 330.346L188.701 325.273L190.831 324.904L191.694 329.828C191.781 330.322 191.968 330.685 192.258 330.918C192.549 331.15 192.915 331.229 193.355 331.153C193.839 331.068 194.188 330.844 194.402 330.479C194.617 330.114 194.67 329.629 194.564 329.025L193.753 324.397L195.883 324.028L196.746 328.952C196.833 329.446 197.022 329.809 197.312 330.043C197.602 330.274 197.968 330.353 198.408 330.276C198.881 330.194 199.23 329.97 199.456 329.602C199.68 329.234 199.74 328.749 199.635 328.146L198.824 323.517L200.954 323.148L202.396 331.383L200.266 331.752L200.113 330.88C199.748 331.701 199.047 332.201 198.013 332.382C197.001 332.558 196.183 332.292 195.56 331.585C195.148 332.47 194.398 333.008 193.308 333.197H193.305Z" fill="#6F3F81"/>
<path d="M181.745 334.315L179.592 334.521L178.783 326.2L180.934 325.994L181.03 326.976C181.596 326.105 182.463 325.612 183.631 325.501C184.743 325.395 185.738 325.727 186.615 326.499C187.493 327.272 187.992 328.273 188.112 329.505C188.232 330.737 187.936 331.814 187.223 332.74C186.511 333.664 185.598 334.181 184.486 334.286C183.318 334.398 182.372 334.08 181.649 333.332L181.745 334.314V334.315ZM185.145 328.085C184.669 327.688 184.097 327.521 183.43 327.585C182.762 327.65 182.23 327.922 181.833 328.402C181.437 328.883 181.271 329.467 181.339 330.155C181.406 330.843 181.68 331.384 182.162 331.78C182.644 332.176 183.218 332.342 183.886 332.278C184.553 332.213 185.082 331.942 185.473 331.462C185.865 330.983 186.026 330.399 185.959 329.711C185.892 329.023 185.621 328.481 185.145 328.085Z" fill="#6F3F81"/>
<path d="M172.739 332.747L174.631 332.664L174.472 329.191C174.46 328.9 174.377 328.693 174.225 328.565C174.074 328.438 173.859 328.372 173.579 328.368C173.299 328.364 172.953 328.381 172.542 328.422L172.453 326.468C173.929 326.235 174.983 326.328 175.612 326.747C176.24 327.165 176.581 327.947 176.633 329.095L176.792 332.568L178.248 332.504L178.343 334.576L176.886 334.64L176.964 336.327L174.834 337.074L174.727 334.736L172.835 334.819L172.74 332.749L172.739 332.747Z" fill="#6F3F81"/>
<path d="M166.936 332.811L168.83 332.795L168.795 329.318C168.792 329.028 168.718 328.818 168.571 328.685C168.424 328.552 168.211 328.479 167.932 328.464C167.653 328.45 167.306 328.456 166.893 328.481L166.873 326.526C168.357 326.346 169.406 326.476 170.019 326.916C170.632 327.357 170.945 328.151 170.956 329.298L170.992 332.775L172.45 332.762L172.471 334.835L171.013 334.848L171.031 336.536L168.875 337.207L168.851 334.866L166.957 334.884L166.936 332.811Z" fill="#6F3F81"/>
<path d="M164.073 329.765C163.822 328.708 163.053 328.154 161.769 328.106C160.943 328.074 160.307 328.329 159.863 328.87L158.158 327.802C159.028 326.642 160.266 326.091 161.874 326.153C163.258 326.204 164.353 326.664 165.161 327.531C165.968 328.397 166.348 329.465 166.303 330.735C166.257 331.994 165.805 333.027 164.949 333.838C164.093 334.648 163.017 335.029 161.722 334.98C160.494 334.934 159.495 334.472 158.728 333.596C157.96 332.719 157.599 331.658 157.644 330.41C157.654 330.131 157.693 329.838 157.76 329.528L164.075 329.765H164.073ZM164.046 331.438L159.775 331.277C159.878 331.85 160.116 332.283 160.491 332.575C160.866 332.868 161.3 333.024 161.791 333.043C162.371 333.064 162.857 332.936 163.247 332.654C163.637 332.373 163.903 331.967 164.046 331.438Z" fill="#6F3F81"/>
<path d="M153.979 332.826C153.735 333.342 153.369 333.713 152.884 333.94C152.4 334.168 151.874 334.256 151.307 334.209L151.508 331.81C152.158 331.943 152.757 331.86 153.303 331.56C153.849 331.259 154.156 330.71 154.224 329.91L154.557 325.929L156.711 326.112L156.013 334.441L153.859 334.258L153.979 332.826Z" fill="#6F3F81"/>
<path d="M130.003 325.257C129.98 324.169 129.347 323.467 128.102 323.148C127.3 322.943 126.626 323.058 126.077 323.491L124.636 322.088C125.732 321.138 127.06 320.862 128.619 321.261C129.962 321.604 130.936 322.285 131.541 323.303C132.145 324.32 132.291 325.444 131.977 326.675C131.665 327.895 131.005 328.809 129.996 329.42C128.987 330.029 127.855 330.174 126.599 329.852C125.408 329.547 124.53 328.885 123.966 327.866C123.401 326.848 123.273 325.733 123.581 324.524C123.65 324.254 123.75 323.975 123.882 323.687L130.004 325.255L130.003 325.257ZM129.623 326.885L125.482 325.825C125.461 326.406 125.602 326.879 125.907 327.245C126.211 327.61 126.601 327.855 127.079 327.976C127.642 328.121 128.144 328.097 128.585 327.905C129.027 327.713 129.373 327.373 129.624 326.886L129.623 326.885Z" fill="#6F3F81"/>
<path d="M112.031 325.429C111.119 325.123 110.49 324.584 110.143 323.808C109.796 323.033 109.789 322.15 110.12 321.157L111.755 316.276L113.806 316.964L112.22 321.702C112.061 322.177 112.054 322.586 112.198 322.928C112.343 323.27 112.627 323.514 113.052 323.655C113.517 323.811 113.932 323.78 114.294 323.561C114.657 323.342 114.934 322.941 115.128 322.36L116.62 317.907L118.67 318.595L117.083 323.333C116.925 323.808 116.918 324.217 117.062 324.559C117.206 324.901 117.491 325.144 117.915 325.286C118.371 325.439 118.786 325.408 119.157 325.192C119.53 324.976 119.813 324.578 120.008 323.997L121.5 319.543L123.549 320.232L120.895 328.155L118.846 327.466L119.127 326.627C118.414 327.175 117.558 327.282 116.563 326.947C115.588 326.619 114.995 325.999 114.784 325.081C113.999 325.665 113.083 325.78 112.034 325.428L112.031 325.429Z" fill="#6F3F81"/>
<path d="M103.456 313.889C104.579 313.436 105.713 313.45 106.856 313.931C107.999 314.412 108.801 315.21 109.26 316.327C109.719 317.445 109.709 318.573 109.23 319.714C108.751 320.854 107.954 321.652 106.836 322.107C105.718 322.562 104.586 322.549 103.443 322.07C102.3 321.589 101.495 320.789 101.032 319.671C100.568 318.552 100.576 317.422 101.053 316.281C101.531 315.141 102.333 314.344 103.456 313.892V313.889ZM107.282 317.1C107.053 316.533 106.64 316.124 106.043 315.872C105.445 315.622 104.861 315.612 104.292 315.844C103.722 316.075 103.307 316.5 103.05 317.116C102.791 317.732 102.779 318.324 103.013 318.894C103.247 319.463 103.663 319.874 104.261 320.124C104.858 320.375 105.44 320.383 106.004 320.15C106.569 319.915 106.98 319.49 107.239 318.874C107.498 318.257 107.512 317.666 107.283 317.098L107.282 317.1Z" fill="#6F3F81"/>
<path d="M94.821 315.607L96.5303 316.423L98.0282 313.286C98.1525 313.024 98.1782 312.802 98.1053 312.619C98.0324 312.436 97.8724 312.277 97.628 312.142C97.3836 312.006 97.0692 311.86 96.6861 311.701L97.5279 309.937C98.9414 310.426 99.8261 311.004 100.185 311.668C100.542 312.333 100.475 313.183 99.9805 314.219L98.4827 317.356L99.799 317.984L98.9057 319.854L97.5894 319.226L96.8619 320.75L94.6295 320.406L95.6371 318.295L93.9277 317.478L94.821 315.608V315.607Z" fill="#6F3F81"/>
<path d="M91.3082 317.255C91.6269 317.418 91.8427 317.677 91.9556 318.03C92.07 318.383 92.0443 318.718 91.8813 319.034C91.7184 319.35 91.4583 319.569 91.1024 319.687C90.7465 319.804 90.4092 319.781 90.0919 319.618C89.7646 319.449 89.5446 319.186 89.4331 318.828C89.3216 318.471 89.3473 318.133 89.5117 317.815C89.6746 317.498 89.9333 317.283 90.2863 317.172C90.6393 317.059 90.9809 317.087 91.3082 317.256V317.255ZM96.5449 309.426L92.7203 316.855L90.798 315.865L94.6226 308.436L96.5449 309.426Z" fill="#6F3F81"/>
<path d="M86.4965 305.121C87.6656 304.807 88.7904 304.955 89.8681 305.569C90.9457 306.183 91.646 307.071 91.9676 308.234C92.2892 309.398 92.1434 310.518 91.5317 311.592C90.92 312.667 90.0324 313.363 88.8676 313.681C87.7028 313.999 86.5809 313.851 85.5032 313.237C84.4256 312.624 83.7224 311.734 83.3966 310.568C83.0707 309.402 83.2136 308.282 83.8253 307.206C84.437 306.131 85.3274 305.436 86.498 305.121H86.4965ZM89.9109 308.765C89.7523 308.174 89.3907 307.719 88.8276 307.399C88.2645 307.079 87.6857 306.998 87.0925 307.162C86.4994 307.323 86.0363 307.695 85.7062 308.276C85.376 308.857 85.2917 309.443 85.4561 310.037C85.6204 310.631 85.9835 311.087 86.5466 311.408C87.1097 311.728 87.6857 311.807 88.2745 311.641C88.8633 311.476 89.3235 311.103 89.6537 310.522C89.9838 309.941 90.071 309.356 89.9109 308.765Z" fill="#6F3F81"/>
<path d="M76.361 307.639C75.5935 307.14 75.1262 306.469 74.9589 305.629C74.7931 304.789 75.0047 303.916 75.5935 303.011L78.3933 298.712L80.2056 299.892L77.5515 303.966C77.2471 304.433 77.1414 304.872 77.2328 305.284C77.3243 305.696 77.5816 306.039 78.0032 306.314C78.472 306.619 78.9407 306.718 79.4095 306.612C79.8797 306.506 80.3028 306.162 80.6787 305.583L83.1412 301.802L84.9535 302.982L80.3928 309.984L78.5806 308.803L79.0908 308.019C78.2247 308.386 77.3143 308.258 76.3596 307.637L76.361 307.639Z" fill="#6F3F81"/>
<path d="M72.0989 301.538C72.2304 301.358 72.2175 301.125 72.0603 300.837C71.9031 300.55 71.6844 300.239 71.4029 299.903C71.1227 299.567 70.8583 299.209 70.6097 298.829C70.3624 298.448 70.2295 298.018 70.2138 297.537C70.198 297.056 70.3567 296.587 70.6926 296.128C71.1985 295.435 71.8474 295.091 72.6391 295.096C73.4309 295.102 74.2156 295.387 74.9916 295.953C76.3823 296.968 76.9397 298.194 76.6638 299.634L74.5257 299.378C74.7544 298.649 74.5257 298.033 73.8383 297.533C73.2151 297.078 72.7621 297.045 72.4805 297.431C72.349 297.611 72.3619 297.845 72.5191 298.132C72.6763 298.42 72.8935 298.733 73.1708 299.073C73.4481 299.414 73.7096 299.776 73.954 300.161C74.1984 300.546 74.3342 300.972 74.3599 301.44C74.3857 301.906 74.2384 302.361 73.9169 302.802C73.4309 303.467 72.8021 303.813 72.0303 303.836C71.2585 303.86 70.5082 303.604 69.7764 303.072C69.2262 302.67 68.8146 302.181 68.543 301.604C68.2729 301.028 68.1728 300.414 68.2457 299.764L70.3267 300.041C70.208 300.657 70.4024 301.151 70.9084 301.518C71.1342 301.683 71.3571 301.77 71.5787 301.78C71.8002 301.79 71.9731 301.709 72.0975 301.538H72.0989Z" fill="#6F3F81"/>
<path d="M55.6405 291.55C54.9188 290.915 54.5486 290.174 54.53 289.326C54.5114 288.477 54.8473 287.66 55.5405 286.875L58.9449 283.014L60.5685 284.443L57.2641 288.191C56.9325 288.567 56.7668 288.941 56.7668 289.313C56.7668 289.683 56.9354 290.018 57.2698 290.313C57.6386 290.638 58.033 290.769 58.4518 290.708C58.8706 290.646 59.2836 290.386 59.6881 289.927L62.7938 286.404L64.4174 287.834L61.113 291.582C60.7814 291.958 60.6156 292.331 60.6156 292.703C60.6156 293.074 60.7843 293.409 61.1202 293.703C61.4803 294.021 61.8748 294.153 62.3021 294.098C62.7295 294.044 63.1468 293.788 63.5513 293.327L66.657 289.805L68.2805 291.234L62.7552 297.502L61.1316 296.073L61.7176 295.409C60.8472 295.636 60.0168 295.403 59.2279 294.709C58.4561 294.03 58.1517 293.227 58.3117 292.3C57.3613 292.533 56.4709 292.283 55.6405 291.552V291.55Z" fill="#6F3F81"/>
<path d="M47.5229 283.236L46.0137 281.687L52.005 275.86L53.5142 277.409L52.8068 278.097C53.8429 277.994 54.7691 278.363 55.588 279.203C56.3684 280.003 56.7314 280.987 56.6771 282.153C56.6242 283.32 56.154 284.333 55.2664 285.196C54.3803 286.059 53.3527 286.501 52.1836 286.522C51.0145 286.544 50.0412 286.155 49.2609 285.355C48.4419 284.515 48.0989 283.578 48.229 282.548L47.5215 283.236H47.5229ZM54.519 281.999C54.5304 281.379 54.3017 280.83 53.8344 280.35C53.367 279.87 52.821 279.625 52.1965 279.616C51.5733 279.608 51.0131 279.844 50.5186 280.325C50.0241 280.807 49.7725 281.359 49.7639 281.981C49.7568 282.605 49.9869 283.156 50.4543 283.637C50.9216 284.117 51.4661 284.359 52.085 284.365C52.7053 284.371 53.2627 284.132 53.7572 283.649C54.2531 283.167 54.5061 282.618 54.5175 281.999H54.519Z" fill="#6F3F81"/>
<path d="M43.1077 275.231L44.3582 276.655L46.9723 274.363C47.1909 274.171 47.301 273.978 47.3067 273.781C47.311 273.583 47.2281 273.374 47.0566 273.153C46.8851 272.932 46.655 272.673 46.3649 272.377L47.8355 271.088C48.9417 272.094 49.5291 272.974 49.5949 273.725C49.6621 274.476 49.2633 275.23 48.4001 275.987L45.786 278.279L46.7479 279.374L45.1886 280.741L44.2267 279.645L42.9576 280.758L41.041 279.563L42.8004 278.021L41.5498 276.598L43.1077 275.231Z" fill="#6F3F81"/>
<path d="M39.4231 270.745L40.6222 272.211L43.3163 270.014C43.5407 269.83 43.6593 269.64 43.6707 269.443C43.6822 269.245 43.6064 269.034 43.442 268.808C43.2777 268.582 43.0576 268.314 42.7775 268.008L44.2924 266.772C45.3629 267.818 45.9175 268.716 45.9575 269.47C45.9975 270.224 45.573 270.962 44.6826 271.687L41.9885 273.885L42.9118 275.014L41.3054 276.324L40.3821 275.195L39.0729 276.263L37.1992 275.001L39.0129 273.522L37.8152 272.055L39.4217 270.745H39.4231Z" fill="#6F3F81"/>
<path d="M40.0089 266.61C40.6778 265.753 40.6292 264.809 39.8632 263.778C39.3701 263.114 38.7741 262.778 38.0724 262.768L37.8394 260.77C39.2915 260.725 40.4963 261.348 41.4553 262.64C42.2814 263.753 42.6073 264.894 42.4358 266.064C42.2628 267.234 41.6668 268.197 40.6464 268.952C39.6345 269.702 38.544 269.995 37.3749 269.832C36.2058 269.669 35.2354 269.067 34.4621 268.027C33.7304 267.039 33.466 265.974 33.6704 264.828C33.8747 263.682 34.4793 262.738 35.4812 261.995C35.7056 261.829 35.9585 261.676 36.243 261.534L40.0089 266.607V266.61ZM38.6855 267.632L36.1386 264.2C35.7556 264.636 35.5669 265.092 35.5726 265.567C35.5784 266.042 35.7284 266.477 36.0214 266.872C36.3673 267.339 36.7732 267.636 37.2363 267.766C37.7008 267.895 38.1838 267.851 38.6869 267.63L38.6855 267.632Z" fill="#6F3F81"/>
<path d="M31.3029 260.645C30.7455 260.775 30.2282 260.723 29.7465 260.486C29.2663 260.25 28.8661 259.895 28.5488 259.422L30.5497 258.082C30.8527 258.673 31.2929 259.088 31.8689 259.327C32.4463 259.566 33.068 259.463 33.734 259.017L37.0541 256.793L38.2589 258.587L31.3129 263.239L30.1081 261.444L31.3029 260.645Z" fill="#6F3F81"/>
<path d="M23.8836 240.689C24.7011 239.974 24.8311 239.037 24.2723 237.881C23.9136 237.137 23.3905 236.693 22.703 236.553L22.8488 234.549C24.2837 234.776 25.3499 235.615 26.0488 237.063C26.6505 238.31 26.7577 239.492 26.369 240.609C25.9802 241.726 25.2127 242.561 24.0679 243.111C22.9331 243.658 21.8069 243.741 20.6878 243.362C19.5702 242.983 18.7298 242.209 18.1652 241.043C17.6307 239.937 17.5721 238.839 17.988 237.754C18.4039 236.668 19.1743 235.854 20.2991 235.311C20.5506 235.191 20.8293 235.088 21.1337 235.002L23.8807 240.691L23.8836 240.689ZM22.3914 241.445L20.5335 237.598C20.0747 237.955 19.8031 238.367 19.7202 238.835C19.6373 239.303 19.7017 239.758 19.916 240.201C20.169 240.725 20.5106 241.093 20.9422 241.307C21.3738 241.522 21.8569 241.568 22.3929 241.446L22.3914 241.445Z" fill="#6F3F81"/>
<path d="M12.1615 227.062C11.8085 226.169 11.8156 225.341 12.1858 224.577C12.5546 223.813 13.2277 223.239 14.2024 222.856L18.9946 220.967L19.7893 222.977L15.1372 224.81C14.6698 224.993 14.3525 225.251 14.1839 225.581C14.0152 225.912 14.0124 226.285 14.1767 226.7C14.3582 227.158 14.6484 227.454 15.05 227.59C15.4516 227.726 15.9375 227.681 16.5078 227.457L20.8798 225.734L21.6744 227.744L17.0223 229.577C16.5549 229.761 16.2377 230.018 16.069 230.348C15.9004 230.678 15.8975 231.052 16.0619 231.467C16.2391 231.913 16.5292 232.209 16.9351 232.357C17.341 232.503 17.8284 232.464 18.3986 232.239L22.7706 230.517L23.5653 232.527L15.786 235.591L14.9914 233.581L15.816 233.257C14.9356 233.063 14.3025 232.478 13.9166 231.503C13.5379 230.547 13.6322 229.694 14.1982 228.943C13.2463 228.719 12.566 228.092 12.1601 227.063L12.1615 227.062Z" fill="#6F3F81"/>
<path d="M15.4724 213.086C16.5429 213.654 17.2632 214.529 17.6319 215.714C18.0007 216.897 17.9049 218.023 17.3447 219.091C16.7844 220.16 15.9126 220.877 14.7306 221.243C13.5487 221.609 12.4224 221.512 11.3534 220.948C10.2843 220.386 9.56543 219.512 9.19669 218.329C8.82795 217.146 8.92228 216.017 9.48111 214.943C10.0399 213.87 10.9103 213.149 12.0923 212.782C13.2743 212.416 14.4005 212.516 15.471 213.084L15.4724 213.086ZM15.4781 218.074C15.7654 217.535 15.8125 216.957 15.6196 216.337C15.4267 215.719 15.0579 215.266 14.5134 214.98C13.9689 214.694 13.3757 214.648 12.7369 214.847C12.098 215.046 11.6349 215.416 11.3505 215.961C11.0647 216.506 11.0189 217.087 11.2119 217.705C11.4048 218.323 11.7736 218.774 12.3167 219.056C12.8598 219.337 13.4515 219.379 14.0903 219.182C14.7292 218.984 15.1923 218.615 15.4795 218.076L15.4781 218.074Z" fill="#6F3F81"/>
<path d="M8.59469 207.579L9.06919 209.412L12.4379 208.543C12.7194 208.47 12.9052 208.347 12.9981 208.174C13.091 208.001 13.111 207.776 13.0567 207.502C13.0024 207.227 12.9138 206.894 12.788 206.499L14.6832 206.011C15.2177 207.407 15.3463 208.454 15.0662 209.155C14.7875 209.856 14.0915 210.349 12.9795 210.636L9.61087 211.505L9.97675 212.915L7.96869 213.433L7.60281 212.022L5.96636 212.444L4.79297 210.516L7.06114 209.932L6.58664 208.1L8.59469 207.582V207.579Z" fill="#6F3F81"/>
<path d="M5.07058 205.943C5.14919 206.292 5.09059 206.622 4.89336 206.936C4.69613 207.249 4.42315 207.445 4.07442 207.524C3.72569 207.602 3.39268 207.542 3.07396 207.346C2.75525 207.149 2.55516 206.877 2.47655 206.528C2.39509 206.169 2.45511 205.831 2.65806 205.517C2.86101 205.202 3.13685 205.006 3.48415 204.927C3.83288 204.848 4.16303 204.908 4.47746 205.107C4.79189 205.306 4.98912 205.584 5.07058 205.944V205.943ZM14.4448 204.929L6.28685 206.768L5.80806 204.661L13.966 202.821L14.4448 204.929Z" fill="#6F3F81"/>
<path d="M11.284 194.475C12.2787 195.169 12.8861 196.125 13.1091 197.345C13.332 198.564 13.1005 199.67 12.4145 200.663C11.7284 201.655 10.7766 202.262 9.55889 202.482C8.3412 202.703 7.23498 202.469 6.24167 201.781C5.24837 201.093 4.64095 200.139 4.41799 198.92C4.19503 197.701 4.42657 196.592 5.11116 195.594C5.79576 194.597 6.74762 193.987 7.96531 193.765C9.18301 193.545 10.2892 193.781 11.284 194.475ZM10.6837 199.426C11.0338 198.926 11.151 198.358 11.0353 197.72C10.9195 197.083 10.6079 196.588 10.1006 196.238C9.59462 195.887 9.0115 195.771 8.35406 195.89C7.69519 196.009 7.19211 196.322 6.84195 196.828C6.49179 197.335 6.37602 197.906 6.49179 198.542C6.60755 199.179 6.91912 199.671 7.42364 200.016C7.92958 200.362 8.51127 200.474 9.16872 200.355C9.82759 200.236 10.3321 199.926 10.6823 199.425L10.6837 199.426Z" fill="#6F3F81"/>
<path d="M2.8327 188.324C2.72265 187.416 2.93703 186.627 3.47299 185.962C4.01038 185.297 4.81646 184.899 5.8898 184.77L10.9893 184.161L11.2494 186.305L6.41575 186.883C5.86264 186.949 5.45675 187.15 5.19949 187.484C4.94223 187.819 4.84361 188.235 4.90507 188.735C4.97224 189.288 5.19806 189.712 5.58109 190.004C5.96412 190.295 6.50008 190.4 7.1861 190.317L11.671 189.78L11.9311 191.925L3.62592 192.919L3.3658 190.775L4.29622 190.663C3.4587 190.235 2.9699 189.456 2.8327 188.325V188.324Z" fill="#6F3F81"/>
<path d="M4.77689 181.143C4.99985 181.129 5.16993 180.968 5.28998 180.665C5.40861 180.362 5.50722 179.994 5.5844 179.563C5.66158 179.133 5.76734 178.701 5.89883 178.267C6.03175 177.834 6.27757 177.456 6.63631 177.136C6.99504 176.815 7.45811 176.636 8.02551 176.599C8.88304 176.542 9.56335 176.819 10.0679 177.429C10.5724 178.038 10.8582 178.822 10.9225 179.781C11.0383 181.496 10.4552 182.709 9.17174 183.42L7.99406 181.619C8.70153 181.326 9.02596 180.757 8.96879 179.911C8.91734 179.143 8.6515 178.774 8.17272 178.805C7.94976 178.819 7.77968 178.98 7.65963 179.284C7.541 179.589 7.43953 179.957 7.35663 180.387C7.27374 180.818 7.16369 181.25 7.02505 181.685C6.88642 182.12 6.64631 182.496 6.30473 182.815C5.96314 183.134 5.51866 183.312 4.97412 183.347C4.15089 183.402 3.48202 183.141 2.9675 182.565C2.45441 181.99 2.16571 181.25 2.10568 180.347C2.05995 179.668 2.17143 179.04 2.44012 178.463C2.70881 177.887 3.11614 177.417 3.6621 177.057L4.7869 178.828C4.23808 179.133 3.98368 179.598 4.02512 180.222C4.0437 180.5 4.12088 180.727 4.25523 180.903C4.38957 181.078 4.56394 181.159 4.77403 181.146L4.77689 181.143Z" fill="#6F3F81"/>
<path d="M1.86303 162.133C1.88733 161.173 2.21748 160.415 2.85634 159.855C3.4952 159.297 4.33844 159.031 5.38605 159.059L10.5384 159.192L10.4855 161.35L5.48467 161.22C4.98302 161.207 4.58998 161.32 4.30414 161.558C4.01972 161.797 3.87108 162.139 3.86108 162.585C3.84964 163.076 4.00114 163.462 4.31843 163.744C4.63571 164.026 5.10021 164.175 5.71335 164.19L10.414 164.312L10.3612 166.471L5.36033 166.34C4.85867 166.328 4.46564 166.441 4.17979 166.678C3.89538 166.917 3.74674 167.259 3.73531 167.705C3.72387 168.185 3.87537 168.571 4.19266 168.864C4.50851 169.157 4.97444 169.312 5.58757 169.328L10.2883 169.449L10.2354 171.608L1.8716 171.392L1.92449 169.233L2.8106 169.256C2.07598 168.735 1.72154 167.95 1.74726 166.9C1.77299 165.874 2.19318 165.124 3.00783 164.655C2.2189 164.077 1.8373 163.235 1.86446 162.13L1.86303 162.133Z" fill="#6F3F81"/>
<path d="M3.02275 150.593L3.23999 148.444L11.5638 149.296L11.3465 151.445L10.3646 151.344C11.1093 152.071 11.4237 153.018 11.3051 154.184C11.1922 155.294 10.6719 156.203 9.74294 156.911C8.81395 157.618 7.73346 157.908 6.50147 157.782C5.26948 157.656 4.26903 157.153 3.50011 156.272C2.73119 155.392 2.4039 154.395 2.51538 153.284C2.634 152.118 3.12994 151.254 4.00462 150.693L3.02275 150.593ZM8.47379 155.156C8.95544 154.768 9.23128 154.24 9.29845 153.573C9.36563 152.907 9.20269 152.333 8.80823 151.849C8.41377 151.366 7.87352 151.09 7.18464 151.018C6.49718 150.948 5.9112 151.11 5.42813 151.503C4.94505 151.897 4.67064 152.427 4.60347 153.093C4.53629 153.758 4.69922 154.332 5.09369 154.809C5.48815 155.287 6.02983 155.562 6.71728 155.632C7.40617 155.702 7.99072 155.543 8.47236 155.156H8.47379Z" fill="#6F3F81"/>
<path d="M6.31422 142.084L6.02837 143.953L9.46851 144.484C9.75578 144.529 9.97588 144.488 10.1302 144.365C10.2846 144.242 10.3904 144.044 10.4504 143.77C10.509 143.497 10.559 143.155 10.599 142.743L12.5342 143.041C12.4742 144.533 12.1783 145.547 11.6452 146.079C11.1121 146.612 10.2774 146.792 9.14264 146.617L5.70251 146.087L5.48241 147.526L3.43148 147.21L3.65158 145.77L1.98083 145.513L1.66211 143.278L3.97744 143.634L4.26329 141.765L6.31422 142.081V142.084Z" fill="#6F3F81"/>
<path d="M7.3821 136.385L7.03052 138.243L10.4506 138.894C10.7365 138.948 10.958 138.917 11.1167 138.799C11.2753 138.682 11.3882 138.488 11.4568 138.217C11.5254 137.947 11.5869 137.606 11.6412 137.196L13.5649 137.562C13.4534 139.051 13.1204 140.054 12.5702 140.568C12.0185 141.083 11.1781 141.232 10.049 141.017L6.62891 140.366L6.35735 141.797L4.31929 141.409L4.59084 139.978L2.93009 139.662L2.69141 137.419L4.99245 137.857L5.34404 135.998L7.3821 136.386V136.385Z" fill="#6F3F81"/>
<path d="M10.9253 134.179C12.0129 134.141 12.7047 133.497 13.0019 132.248C13.1934 131.445 13.0662 130.772 12.6218 130.229L14.001 128.769C14.9714 129.849 15.2701 131.171 14.8985 132.734C14.5784 134.081 13.9152 135.064 12.9076 135.684C11.9 136.304 10.7781 136.467 9.54036 136.172C8.31409 135.88 7.38653 135.234 6.75767 134.235C6.12882 133.237 5.96446 132.108 6.26459 130.847C6.54901 129.653 7.19501 128.766 8.20404 128.186C9.21307 127.607 10.3264 127.463 11.5413 127.752C11.8128 127.816 12.0944 127.912 12.3845 128.039L10.9253 134.179ZM9.29025 133.823L10.2778 129.67C9.69615 129.657 9.2245 129.806 8.86434 130.116C8.50418 130.427 8.26693 130.82 8.15402 131.298C8.01967 131.863 8.05254 132.364 8.25264 132.802C8.45273 133.24 8.7986 133.58 9.29168 133.823H9.29025Z" fill="#6F3F81"/>
<path d="M9.88572 123.687C9.42694 123.345 9.13252 122.914 9.00389 122.395C8.87526 121.876 8.88955 121.342 9.04677 120.796L11.3621 121.464C11.1048 122.075 11.0705 122.677 11.2592 123.272C11.4479 123.867 11.9281 124.275 12.6999 124.498L16.543 125.607L15.9456 127.681L7.90625 125.361L8.50366 123.286L9.88715 123.686L9.88572 123.687Z" fill="#6F3F81"/>
<path d="M21.9577 101.683C23.0296 101.875 23.8414 101.392 24.396 100.234C24.7533 99.4888 24.7704 98.805 24.4503 98.1812L26.1082 97.0453C26.8285 98.3057 26.8414 99.6605 26.1468 101.11C25.5493 102.357 24.6918 103.178 23.5756 103.572C22.4594 103.965 21.3274 103.887 20.1798 103.337C19.0421 102.792 18.2732 101.967 17.8687 100.858C17.4657 99.7492 17.5429 98.6118 18.1031 97.443C18.6334 96.3357 19.4523 95.6061 20.5628 95.2527C21.6719 94.8993 22.791 94.9923 23.9172 95.5331C24.1687 95.6533 24.4231 95.8063 24.6818 95.9923L21.9563 101.683H21.9577ZM20.4327 100.991L22.2764 97.1411C21.7105 97.0067 21.2188 97.0524 20.8001 97.2785C20.3827 97.5045 20.0669 97.8393 19.8553 98.2828C19.6052 98.8064 19.5309 99.3028 19.6338 99.7721C19.7367 100.243 20.0025 100.648 20.4327 100.99V100.991Z" fill="#6F3F81"/>
<path d="M25.2722 84.0373C25.7495 83.2047 26.4013 82.6939 27.2288 82.5065C28.0563 82.3191 28.9253 82.4851 29.8357 83.0058L34.3091 85.5667L33.2358 87.4408L28.8924 84.9544C28.4565 84.7054 28.0563 84.6182 27.6933 84.6925C27.3288 84.7669 27.0358 84.9987 26.8143 85.385C26.5699 85.8113 26.5213 86.2233 26.6657 86.6211C26.81 87.0188 27.1502 87.3707 27.6818 87.6754L31.7637 90.0117L30.6904 91.8858L26.347 89.3994C25.911 89.1504 25.5109 89.0632 25.1478 89.1376C24.7834 89.212 24.4904 89.4423 24.2689 89.83C24.0302 90.2463 23.9816 90.6583 24.1202 91.0661C24.2603 91.4738 24.5962 91.83 25.1278 92.1348L29.2097 94.471L28.1363 96.3451L20.873 92.1877L21.9464 90.3136L22.7167 90.7542C22.318 89.9473 22.378 89.0889 22.8997 88.1776C23.4099 87.2863 24.136 86.8285 25.0764 86.8013C24.6562 85.9186 24.7205 84.9973 25.2693 84.0387L25.2722 84.0373Z" fill="#6F3F81"/>
<path d="M38.2672 77.9056C38.493 79.0959 38.2601 80.2033 37.5655 81.229C36.8723 82.2548 35.9319 82.8829 34.7471 83.1118C33.5622 83.3407 32.456 83.1089 31.4298 82.4165C30.4037 81.7226 29.7762 80.7841 29.5461 79.5995C29.3175 78.415 29.549 77.3091 30.2422 76.2833C30.9353 75.2575 31.8772 74.6266 33.0649 74.3934C34.254 74.1602 35.3602 74.3891 36.3878 75.0816C37.414 75.7754 38.04 76.7168 38.2672 77.9056ZM34.3726 81.0216C34.9743 80.91 35.456 80.5852 35.8175 80.0488C36.1806 79.5123 36.3021 78.9429 36.1863 78.3377C36.0691 77.734 35.7332 77.2447 35.1787 76.8699C34.6242 76.495 34.0439 76.3663 33.4393 76.4836C32.8348 76.6009 32.3517 76.9271 31.9887 77.4636C31.6256 78.0001 31.5056 78.568 31.6256 79.1675C31.7457 79.7669 32.083 80.2548 32.6375 80.6282C33.1921 81.003 33.7709 81.1346 34.3712 81.0216H34.3726Z" fill="#6F3F81"/>
<path d="M38.2628 69.1012L37.1294 70.6148L39.9164 72.7007C40.1494 72.8738 40.3623 72.9439 40.5567 72.9081C40.751 72.8724 40.9383 72.7479 41.1184 72.5347C41.2984 72.3216 41.5043 72.0426 41.7344 71.6992L43.3022 72.8724C42.5461 74.1614 41.8072 74.9139 41.0855 75.1342C40.3637 75.3545 39.5419 75.1185 38.6229 74.4303L35.836 72.3444L34.9627 73.5104L33.3005 72.2672L34.1738 71.1012L32.8203 70.0883L33.5921 67.9695L35.4687 69.373L36.602 67.8594L38.2642 69.1026L38.2628 69.1012Z" fill="#6F3F81"/>
<path d="M37.3317 65.3329C37.1088 65.6119 36.8129 65.7736 36.4456 65.8151C36.0769 65.8566 35.7539 65.7664 35.4738 65.5447C35.1951 65.3215 35.0321 65.0254 34.9864 64.6534C34.9407 64.2814 35.0278 63.9567 35.2508 63.6763C35.4809 63.3887 35.781 63.2256 36.1541 63.187C36.5271 63.1484 36.853 63.2413 37.1331 63.4631C37.4132 63.6863 37.5733 63.981 37.6147 64.3501C37.6562 64.7192 37.5619 65.0468 37.3332 65.3344L37.3317 65.3329ZM43.9962 72.0098L37.4504 66.7965L38.7967 65.1083L45.3425 70.3216L43.9962 72.0098Z" fill="#6F3F81"/>
<path d="M50.1787 63.0166C50.2601 64.2255 49.8943 65.2956 49.081 66.2313C48.2678 67.1669 47.2602 67.6762 46.0554 67.7621C44.8505 67.8465 43.7801 67.4831 42.8453 66.6719C41.9092 65.8607 41.4004 64.8521 41.3147 63.649C41.2303 62.4444 41.5933 61.3757 42.4066 60.44C43.2198 59.5044 44.2288 58.9936 45.4379 58.9035C46.6456 58.8148 47.7176 59.1753 48.6537 59.9879C49.5884 60.7991 50.0972 61.8091 50.1787 63.018V63.0166ZM45.9353 65.6404C46.5456 65.6018 47.063 65.3371 47.4875 64.8493C47.9119 64.3614 48.102 63.8092 48.0591 63.1954C48.0163 62.5817 47.7419 62.0552 47.2359 61.616C46.73 61.1768 46.1697 60.9794 45.5566 61.0223C44.942 61.0652 44.4232 61.3313 43.9987 61.8206C43.5742 62.3099 43.3856 62.8578 43.4328 63.4673C43.4799 64.0767 43.7558 64.6003 44.2617 65.0395C44.7676 65.4788 45.325 65.6776 45.9353 65.639V65.6404Z" fill="#6F3F81"/>
<path d="M49.6891 52.5896C50.3293 51.9358 51.0783 51.611 51.9344 51.6139C52.7905 51.6168 53.6065 51.9973 54.3798 52.7541L58.0514 56.3479L56.5393 57.8901L53.0592 54.4838C52.6604 54.0932 52.2502 53.9029 51.8272 53.9115C51.4055 53.9201 51.0182 54.1032 50.6666 54.4623C50.2765 54.8615 50.0878 55.3007 50.0992 55.7814C50.1121 56.2621 50.3665 56.7442 50.8596 57.2292L54.0896 60.3895L52.5775 61.9317L46.5977 56.0789L48.1098 54.5367L48.7801 55.192C48.5886 54.2706 48.8915 53.4036 49.6891 52.591V52.5896Z" fill="#6F3F81"/>
<path d="M56.5095 49.6204C56.661 49.7849 56.8925 49.8178 57.2041 49.7205C57.5171 49.6233 57.8644 49.4702 58.2488 49.2613C58.6333 49.0524 59.0363 48.865 59.458 48.6976C59.8796 48.5303 60.3283 48.4859 60.8028 48.566C61.2773 48.6461 61.7075 48.8951 62.092 49.3128C62.6737 49.9452 62.8838 50.649 62.7237 51.423C62.5636 52.1984 62.1306 52.9095 61.4231 53.5575C60.1568 54.7192 58.8434 55.0225 57.4842 54.4674L58.1531 52.423C58.8248 52.7907 59.4737 52.6891 60.0982 52.1154C60.6656 51.5947 60.7871 51.1583 60.4627 50.805C60.3112 50.6405 60.0797 50.6075 59.7681 50.7048C59.4551 50.8021 59.1049 50.9523 58.7176 51.1569C58.3289 51.3615 57.923 51.5446 57.4971 51.7091C57.0712 51.8722 56.6267 51.9209 56.1636 51.8536C55.7005 51.7864 55.2832 51.5518 54.9145 51.1498C54.3556 50.5417 54.1398 49.8579 54.2685 49.0968C54.3957 48.3371 54.793 47.6504 55.459 47.0395C55.9607 46.5803 56.5209 46.2741 57.1398 46.1225C57.7586 45.9723 58.3803 45.9966 59.0035 46.1954L58.326 48.1797C57.7429 47.9423 57.2227 48.0338 56.761 48.4559C56.5552 48.6447 56.4266 48.8464 56.3737 49.061C56.3208 49.2756 56.3666 49.4616 56.5095 49.6175V49.6204Z" fill="#6F3F81"/>
<path d="M69.52 35.4758C70.2832 34.895 71.0836 34.679 71.9197 34.8277C72.7558 34.9765 73.4918 35.4672 74.1278 36.3013L77.2535 40.3987L75.5342 41.7063L72.4999 37.7277C72.1955 37.3285 71.8611 37.0924 71.4966 37.0195C71.1322 36.9465 70.772 37.0452 70.4176 37.3156C70.0259 37.6132 69.8201 37.9737 69.7987 38.3958C69.7773 38.8192 69.9531 39.2742 70.3247 39.762L73.176 43.5003L71.4566 44.8079L68.4224 40.8293C68.1179 40.4301 67.7835 40.1941 67.4191 40.1211C67.0546 40.0482 66.6944 40.1469 66.3386 40.4173C65.957 40.7077 65.7512 41.0682 65.7197 41.4974C65.6897 41.9266 65.8598 42.3858 66.2328 42.8737L69.0841 46.612L67.3647 47.9196L62.291 41.2671L64.0104 39.9595L64.5478 40.6648C64.4949 39.7663 64.885 38.9995 65.7197 38.3643C66.5372 37.742 67.3848 37.6018 68.2623 37.9437C68.2194 36.9666 68.6382 36.1439 69.5171 35.4758H69.52Z" fill="#6F3F81"/>
<path d="M79.2568 29.165L81.0704 27.9919L85.6254 35.0092L83.8117 36.1837L83.2743 35.3554C83.1743 36.3898 82.6326 37.2267 81.6479 37.8633C80.7103 38.4699 79.6741 38.633 78.5407 38.3497C77.4059 38.0679 76.5012 37.407 75.8281 36.3697C75.1535 35.3311 74.9191 34.2366 75.1249 33.0878C75.3307 31.939 75.901 31.0606 76.8385 30.454C77.8218 29.8174 78.808 29.6643 79.7942 29.9948L79.2568 29.1664V29.165ZM79.1138 36.2639C79.7198 36.3969 80.303 36.281 80.8646 35.9176C81.4263 35.5543 81.7736 35.0678 81.9037 34.4584C82.0337 33.8489 81.9108 33.2552 81.5349 32.6744C81.1591 32.095 80.6646 31.7387 80.0543 31.61C79.444 31.4798 78.858 31.5971 78.2963 31.9605C77.7347 32.3239 77.3902 32.8103 77.2644 33.4155C77.1387 34.022 77.2644 34.6143 77.6403 35.1952C78.0176 35.776 78.5079 36.1322 79.1138 36.2653V36.2639Z" fill="#6F3F81"/>
<path d="M87.9563 26.4104L86.3184 27.3575L88.0634 30.3675C88.2092 30.6179 88.3779 30.7653 88.5708 30.8082C88.7638 30.8511 88.9853 30.811 89.2354 30.6852C89.4855 30.5593 89.7842 30.3847 90.1301 30.1587L91.112 31.8526C89.91 32.7396 88.9338 33.143 88.1835 33.0615C87.4332 32.9799 86.77 32.442 86.194 31.4477L84.449 28.4376L83.187 29.1658L82.1465 27.3703L83.4085 26.6421L82.561 25.18L84.1045 23.5348L85.2793 25.562L86.9172 24.6149L87.9577 26.4104H87.9563Z" fill="#6F3F81"/>
<path d="M93.0264 23.6835L91.3613 24.582L93.0192 27.6421C93.1579 27.8968 93.3222 28.0484 93.5137 28.0971C93.7053 28.1457 93.9282 28.1114 94.1812 27.9941C94.4342 27.8768 94.7386 27.7094 95.0902 27.4933L96.022 29.2144C94.7958 30.0671 93.8082 30.4419 93.0593 30.3389C92.3118 30.2359 91.6643 29.6794 91.117 28.6693L89.4591 25.6092L88.177 26.3016L87.1895 24.4776L88.4715 23.7851L87.6668 22.2987L89.2575 20.6992L90.3738 22.7593L92.0388 21.8609L93.0264 23.685V23.6835Z" fill="#6F3F81"/>
<path d="M97.0103 25.0568C97.7235 25.878 98.661 26.0139 99.8201 25.4617C100.566 25.1069 101.011 24.5876 101.154 23.9023L103.159 24.0611C102.926 25.4932 102.084 26.5533 100.632 27.2443C99.3814 27.8394 98.198 27.9381 97.0817 27.5433C95.9655 27.1484 95.1337 26.3759 94.5863 25.2285C94.0432 24.0911 93.9646 22.9652 94.3477 21.8508C94.7307 20.7363 95.5082 19.9008 96.6773 19.3443C97.7864 18.8178 98.884 18.7649 99.9702 19.1869C101.056 19.6089 101.868 20.3843 102.406 21.5117C102.526 21.7635 102.627 22.0425 102.711 22.3486L97.0089 25.0583L97.0103 25.0568ZM96.2599 23.5604L100.117 21.7277C99.7615 21.2671 99.3499 20.9938 98.8811 20.908C98.4138 20.8221 97.9579 20.8836 97.5134 21.0954C96.9889 21.3443 96.6187 21.6848 96.4029 22.114C96.1871 22.5446 96.1399 23.0267 96.2585 23.5618L96.2599 23.5604Z" fill="#6F3F81"/>
<path d="M104.534 17.6716C104.511 17.1007 104.663 16.6015 104.986 16.1766C105.309 15.7502 105.733 15.4269 106.259 15.208L107.194 17.4284C106.557 17.6115 106.065 17.962 105.72 18.4813C105.376 19.0006 105.359 19.6301 105.67 20.3698L107.223 24.0537L105.23 24.8892L101.984 17.1809L103.977 16.3454L104.536 17.6716H104.534Z" fill="#6F3F81"/>
<path d="M275.795 292.044C277.334 292.044 278.582 290.795 278.582 289.254C278.582 287.713 277.334 286.464 275.795 286.464C274.256 286.464 273.008 287.713 273.008 289.254C273.008 290.795 274.256 292.044 275.795 292.044Z" fill="#AFCA0B"/>
<path d="M328.949 162.968C330.488 162.968 331.736 161.719 331.736 160.179C331.736 158.638 330.488 157.389 328.949 157.389C327.41 157.389 326.162 158.638 326.162 160.179C326.162 161.719 327.41 162.968 328.949 162.968Z" fill="#AFCA0B"/>
<path d="M261.455 40.6357C262.994 40.6357 264.242 39.3867 264.242 37.846C264.242 36.3052 262.994 35.0562 261.455 35.0562C259.916 35.0562 258.668 36.3052 258.668 37.846C258.668 39.3867 259.916 40.6357 261.455 40.6357Z" fill="#AFCA0B"/>
<path d="M119.771 17.7874C121.311 17.7874 122.558 16.5384 122.558 14.9976C122.558 13.4569 121.311 12.2079 119.771 12.2079C118.232 12.2079 116.984 13.4569 116.984 14.9976C116.984 16.5384 118.232 17.7874 119.771 17.7874Z" fill="#AFCA0B"/>
<path d="M16.0018 116.195C17.541 116.195 18.7888 114.946 18.7888 113.405C18.7888 111.864 17.541 110.615 16.0018 110.615C14.4626 110.615 13.2148 111.864 13.2148 113.405C13.2148 114.946 14.4626 116.195 16.0018 116.195Z" fill="#AFCA0B"/>
<path d="M27.7049 253.021C29.2442 253.021 30.4919 251.772 30.4919 250.232C30.4919 248.691 29.2442 247.442 27.7049 247.442C26.1657 247.442 24.918 248.691 24.918 250.232C24.918 251.772 26.1657 253.021 27.7049 253.021Z" fill="#AFCA0B"/>
<path d="M141.646 332.137C143.186 332.137 144.433 330.888 144.433 329.347C144.433 327.807 143.186 326.558 141.646 326.558C140.107 326.558 138.859 327.807 138.859 329.347C138.859 330.888 140.107 332.137 141.646 332.137Z" fill="#AFCA0B"/>
</svg>
