<svg width="20" height="20" viewBox="0 0 20 20" fill="none" xmlns="http://www.w3.org/2000/svg">
<path fill-rule="evenodd" clip-rule="evenodd" d="M4.66669 1.66663C3.00983 1.66663 1.66669 3.00977 1.66669 4.66663V15.3333C1.66669 16.9901 3.00983 18.3333 4.66668 18.3333H10.6667V14.1666L10.6667 14.1081V14.108C10.6666 13.5694 10.6665 13.0696 10.7214 12.6618C10.782 12.2105 10.9259 11.7255 11.3257 11.3256C11.7255 10.9258 12.2106 10.782 12.6619 10.7213C13.0696 10.6665 13.5695 10.6665 14.1081 10.6666L14.1667 10.6666H18.3334V4.66663C18.3334 3.00977 16.9902 1.66663 15.3334 1.66663H4.66669ZM17.9817 12.6666H14.1667C13.5492 12.6666 13.1866 12.6688 12.9283 12.7035C12.8247 12.7174 12.7694 12.733 12.743 12.7429C12.7331 12.7693 12.7175 12.8247 12.7035 12.9283C12.6688 13.1866 12.6667 13.5491 12.6667 14.1666V17.9817C12.9265 17.8434 13.1668 17.6665 13.3787 17.4546L17.4547 13.3786C17.6666 13.1667 17.8435 12.9264 17.9817 12.6666ZM12.7224 12.7528C12.7228 12.753 12.726 12.7515 12.7307 12.748C12.7243 12.7509 12.722 12.7526 12.7224 12.7528ZM12.748 12.7306C12.7516 12.7259 12.753 12.7227 12.7529 12.7223C12.7527 12.7219 12.7509 12.7243 12.748 12.7306Z" fill="#7E7980"/>
</svg>
