<svg width="20" height="20" viewBox="0 0 20 20" fill="none" xmlns="http://www.w3.org/2000/svg">
<path d="M5.56635 2.76694L6.07741 2.25588C6.40285 1.93044 6.93048 1.93044 7.25592 2.25588L9.41074 4.4107C9.73618 4.73614 9.73618 5.26378 9.41074 5.58922L7.91707 7.08289C7.668 7.33196 7.60625 7.71246 7.76378 8.02751C8.67441 9.84877 10.1512 11.3256 11.9724 12.2362C12.2875 12.3937 12.668 12.332 12.9171 12.0829L14.4107 10.5892C14.7362 10.2638 15.2638 10.2638 15.5893 10.5892L17.7441 12.744C18.0695 13.0695 18.0695 13.5971 17.7441 13.9225L17.233 14.4336C15.4736 16.1931 12.6881 16.391 10.6975 14.8981L9.69048 14.1428C8.23753 13.0531 6.94685 11.7624 5.85714 10.3095L5.10189 9.30247C3.60893 7.31187 3.80689 4.5264 5.56635 2.76694Z" fill="#7E7980"/>
</svg>
